<?xml version="1.0" standalone="no"?>
<!DOCTYPE svg PUBLIC "-//W3C//DTD SVG 20010904//EN"
 "http://www.w3.org/TR/2001/REC-SVG-20010904/DTD/svg10.dtd">
<svg version="1.0" xmlns="http://www.w3.org/2000/svg"
 width="935.000000pt" height="935.000000pt" viewBox="0 0 935.000000 935.000000"
 preserveAspectRatio="xMidYMid meet">
<metadata>
Created by potrace 1.14, written by Peter Selinger 2001-2017
</metadata>
<g transform="translate(0.000000,935.000000) scale(0.100000,-0.100000)"
fill="#000000" stroke="none">
<path d="M7606 6750 c-82 -41 -177 -130 -268 -253 -100 -135 -120 -176 -345
-697 -76 -175 -206 -422 -228 -431 -11 -5 -108 -18 -215 -29 -245 -27 -339
-45 -415 -82 -70 -33 -85 -50 -85 -95 0 -35 21 -53 63 -53 13 0 44 -9 68 -19
62 -27 184 -35 318 -21 67 7 117 8 122 3 21 -21 -141 -313 -324 -588 -195
-292 -378 -523 -594 -752 -238 -252 -385 -389 -403 -378 -9 6 26 178 65 321
15 55 48 139 74 189 96 184 273 470 369 598 54 73 118 161 142 197 24 36 56
81 71 100 49 65 60 128 32 187 -32 69 -123 94 -190 53 -18 -11 -47 -45 -64
-76 -34 -60 -66 -88 -257 -225 -86 -62 -141 -93 -234 -130 -66 -27 -123 -47
-126 -44 -3 3 -6 58 -8 122 -1 65 -6 166 -11 225 -8 92 -13 113 -39 154 -32
52 -91 90 -156 101 -94 15 -132 -22 -197 -185 -28 -70 -57 -154 -66 -187 -27
-104 -16 -257 25 -335 7 -14 33 -46 58 -72 l45 -47 -51 -69 c-68 -91 -240
-257 -377 -361 -61 -46 -128 -100 -151 -120 -140 -124 -216 -183 -316 -248
-135 -88 -163 -102 -293 -149 -247 -89 -320 -127 -332 -172 -5 -20 0 -30 22
-48 25 -20 36 -22 104 -17 42 2 105 9 141 15 36 5 108 13 160 17 109 8 149 24
325 126 111 65 141 87 302 225 48 41 129 106 178 145 231 178 471 428 539 563
15 28 21 32 59 32 35 0 141 32 220 65 27 11 21 -7 -35 -102 -120 -206 -139
-241 -171 -318 -35 -82 -84 -279 -133 -527 -25 -124 -26 -143 -15 -193 15 -67
59 -118 116 -134 91 -25 169 -2 315 96 91 61 149 111 274 238 87 88 213 221
279 295 153 172 146 165 152 159 2 -3 -3 -43 -11 -89 -10 -55 -15 -120 -12
-185 3 -89 7 -106 34 -155 34 -61 98 -111 167 -132 63 -19 212 -16 274 5 85
30 163 87 240 179 133 156 180 263 154 349 -24 78 -95 117 -180 98 -92 -20
-137 -83 -94 -131 14 -16 14 -22 3 -43 -22 -40 -150 -174 -183 -192 -33 -17
-123 -23 -144 -10 -18 11 -16 87 3 188 41 221 271 849 390 1069 52 96 211 344
231 362 19 16 171 47 368 74 142 19 228 39 262 61 59 39 66 117 15 165 -52 50
-149 60 -326 33 -55 -8 -103 -12 -107 -8 -9 9 62 116 225 343 179 247 305 449
365 583 56 124 66 259 24 315 -50 68 -157 91 -237 52z"/>
<path d="M3948 6535 c-14 -8 -57 -59 -94 -112 -67 -99 -112 -153 -279 -339
-128 -143 -325 -377 -414 -493 -303 -393 -447 -572 -540 -670 l-79 -84 -103 5
c-114 5 -139 14 -221 79 -57 45 -117 64 -156 51 -22 -7 -28 -15 -30 -48 -3
-36 3 -46 76 -130 79 -90 113 -114 194 -137 22 -7 40 -16 40 -21 0 -4 -130
-144 -289 -310 -159 -165 -303 -317 -320 -336 -51 -58 -381 -363 -483 -446
-147 -119 -369 -264 -525 -342 -147 -73 -249 -91 -299 -51 -33 26 -35 82 -6
189 35 128 225 452 367 626 266 327 476 526 666 629 63 35 72 37 125 31 112
-14 117 -13 120 13 8 57 -109 118 -207 109 -161 -16 -430 -202 -681 -470 -156
-167 -216 -242 -337 -423 -231 -344 -320 -571 -283 -724 16 -67 75 -142 134
-170 93 -46 253 -46 367 -1 177 70 439 218 607 344 151 113 410 346 602 542
96 99 314 320 484 493 l309 314 81 18 c86 19 283 80 480 148 131 45 136 46
136 28 0 -6 -56 -174 -124 -372 -113 -327 -263 -801 -336 -1062 -35 -126 -77
-373 -86 -514 -6 -103 -6 -107 15 -119 32 -17 65 8 97 73 15 28 35 64 45 78
19 28 101 213 145 329 33 84 86 250 173 535 39 127 114 356 167 510 53 154
126 370 163 480 l68 200 184 62 c101 34 238 77 303 95 128 35 155 54 124 85
-20 20 -24 19 -345 -59 -117 -29 -215 -49 -219 -46 -3 4 8 53 25 110 44 149
73 257 130 483 68 270 88 334 159 517 34 86 62 168 62 183 0 99 -107 166 -192
120z m-278 -722 c-1 -48 -200 -746 -219 -765 -3 -4 -112 -33 -241 -64 -300
-72 -283 -69 -279 -56 11 32 379 497 523 661 50 58 116 133 146 168 51 59 70
74 70 56z"/>
<path d="M8890 4524 c-166 -26 -217 -35 -402 -74 -103 -22 -202 -40 -220 -40
-18 0 -64 -7 -102 -15 -37 -8 -124 -19 -193 -25 -107 -9 -129 -9 -155 5 -17 8
-38 15 -48 15 -19 0 -40 -19 -40 -37 0 -12 161 -138 210 -163 59 -31 397 8
762 89 115 26 284 56 487 88 30 4 56 13 58 19 2 7 -42 44 -99 83 -115 79 -112
79 -258 55z"/>
</g>
</svg>
